# xmcd CD database file
#
# Track frame offsets:
#	150
#	12891
#	32236
#	52487
#	69075
#	84973
#	104338
#	123441
#	140103
#	162249
#	182926
#	202614
#
# Disc length: 2937 seconds
#
# Revision: 0
# Processed by: cddbd v1.5.2PL0 Copyright (c) Steve Scherf et al.
# Submitted via: CDex 1.51
#
DISCID=a20b770c
DTITLE=Toño Barrio - Latin groove
DYEAR=2009
DGENRE=Salsa
TTITLE0=Intro
TTITLE1=Barrio viejo
TTITLE2=Sintoniza
TTITLE3=Tu decision
TTITLE4=Reventando
TTITLE5=Huracan
TTITLE6=Luz de vida
TTITLE7=Otro negro José
TTITLE8=Aca
TTITLE9=Demasiado mala
TTITLE10=Cargado
TTITLE11=Maniqui
EXTD=YEAR: 2009
EXTT0=
EXTT1=
EXTT2=
EXTT3=
EXTT4=
EXTT5=
EXTT6=
EXTT7=
EXTT8=
EXTT9=
EXTT10=
EXTT11=
PLAYORDER=
